<svg width="22" height="22" viewBox="0 0 22 22" fill="none" xmlns="http://www.w3.org/2000/svg">
<circle cx="11" cy="11" r="11" fill="#F2F2F2"/>
<path fill-rule="evenodd" clip-rule="evenodd" d="M11 6.09091C8.28878 6.09091 6.09091 8.28878 6.09091 11C6.09091 13.7112 8.28878 15.9091 11 15.9091C13.7112 15.9091 15.9091 13.7112 15.9091 11C15.9091 8.28878 13.7112 6.09091 11 6.09091ZM5 11C5 7.68629 7.68629 5 11 5C14.3137 5 17 7.68629 17 11C17 14.3137 14.3137 17 11 17C7.68629 17 5 14.3137 5 11Z" fill="#5B4A58"/>
<path fill-rule="evenodd" clip-rule="evenodd" d="M11 7.18182C11.3012 7.18182 11.5455 7.42603 11.5455 7.72727V10.6629L13.4258 11.603C13.6952 11.7378 13.8044 12.0654 13.6697 12.3348C13.535 12.6043 13.2073 12.7135 12.9379 12.5788L10.7561 11.4879C10.5713 11.3955 10.4545 11.2066 10.4545 11V7.72727C10.4545 7.42603 10.6988 7.18182 11 7.18182Z" fill="#5B4A58"/>
</svg>
