<svg width="12" height="13" viewBox="0 0 12 13" fill="none" xmlns="http://www.w3.org/2000/svg">
<path fill-rule="evenodd" clip-rule="evenodd" d="M1.8 2.36364C1.46863 2.36364 1.2 2.6282 1.2 2.95455V11.2273C1.2 11.5536 1.46863 11.8182 1.8 11.8182H10.2C10.5314 11.8182 10.8 11.5536 10.8 11.2273V2.95455C10.8 2.6282 10.5314 2.36364 10.2 2.36364H1.8ZM0 2.95455C0 1.9755 0.805887 1.18182 1.8 1.18182H10.2C11.1941 1.18182 12 1.9755 12 2.95455V11.2273C12 12.2063 11.1941 13 10.2 13H1.8C0.805887 13 0 12.2063 0 11.2273V2.95455Z" fill="#5B4A58"/>
<path fill-rule="evenodd" clip-rule="evenodd" d="M8.4 0C8.73137 0 9 0.264559 9 0.590909V2.95455C9 3.2809 8.73137 3.54545 8.4 3.54545C8.06863 3.54545 7.8 3.2809 7.8 2.95455V0.590909C7.8 0.264559 8.06863 0 8.4 0Z" fill="#5B4A58"/>
<path fill-rule="evenodd" clip-rule="evenodd" d="M3.6 0C3.93137 0 4.2 0.264559 4.2 0.590909V2.95455C4.2 3.2809 3.93137 3.54545 3.6 3.54545C3.26863 3.54545 3 3.2809 3 2.95455V0.590909C3 0.264559 3.26863 0 3.6 0Z" fill="#5B4A58"/>
<path fill-rule="evenodd" clip-rule="evenodd" d="M0 5.31818C0 4.99183 0.268629 4.72727 0.6 4.72727H11.4C11.7314 4.72727 12 4.99183 12 5.31818C12 5.64453 11.7314 5.90909 11.4 5.90909H0.6C0.268629 5.90909 0 5.64453 0 5.31818Z" fill="#5B4A58"/>
</svg>
