<svg width="16" height="16" viewBox="0 0 16 16" fill="none" xmlns="http://www.w3.org/2000/svg">
<path d="M11.4915 15.3642L12.7023 13.0865C12.8411 12.8484 12.7761 12.5308 12.5506 12.3452L10.2362 10.5241C10.0278 10.3681 9.75223 10.3694 9.53877 10.5123L7.98995 11.6236C6.44092 10.3078 5.34092 8.43673 4.96507 6.38438L6.70188 5.5987C6.93242 5.48533 7.07127 5.2473 7.04044 4.98883L6.62047 2.07394C6.57255 1.78587 6.32369 1.59408 6.05439 1.57196L3.47638 1.48169C3.20082 1.48292 2.98111 1.64924 2.90605 1.92938C1.3047 7.90569 4.83601 14.0563 10.8357 15.6639C11.0925 15.7327 11.3526 15.6022 11.4915 15.3642Z" fill="white"/>
</svg>
