<svg width="25" height="25" viewBox="0 0 25 25" fill="none" xmlns="http://www.w3.org/2000/svg">
<rect x="0.75" y="0.75" width="23.386" height="23.386" rx="11.693" stroke="#5B4A58" stroke-width="1.5"/>
<path fill-rule="evenodd" clip-rule="evenodd" d="M6.3865 17.0174C7.16421 16.2396 8.21901 15.8027 9.31886 15.8027H15.954C17.0539 15.8027 18.1087 16.2396 18.8864 17.0174C19.6641 17.7951 20.101 18.8499 20.101 19.9497V21.6085C20.101 22.0666 19.7297 22.4379 19.2716 22.4379C18.8136 22.4379 18.4422 22.0666 18.4422 21.6085V19.9497C18.4422 19.2898 18.1801 18.6569 17.7134 18.1903C17.2468 17.7237 16.6139 17.4615 15.954 17.4615H9.31886C8.65895 17.4615 8.02607 17.7237 7.55944 18.1903C7.09282 18.6569 6.83067 19.2898 6.83067 19.9497V21.6085C6.83067 22.0666 6.45933 22.4379 6.00127 22.4379C5.54321 22.4379 5.17188 22.0666 5.17188 21.6085V19.9497C5.17188 18.8499 5.60879 17.7951 6.3865 17.0174Z" fill="#5B4A58"/>
<path fill-rule="evenodd" clip-rule="evenodd" d="M12.6392 7.51036C11.265 7.51036 10.151 8.62436 10.151 9.99855C10.151 11.3727 11.265 12.4867 12.6392 12.4867C14.0134 12.4867 15.1274 11.3727 15.1274 9.99855C15.1274 8.62436 14.0134 7.51036 12.6392 7.51036ZM8.49219 9.99855C8.49219 7.70823 10.3489 5.85156 12.6392 5.85156C14.9295 5.85156 16.7862 7.70823 16.7862 9.99855C16.7862 12.2889 14.9295 14.1455 12.6392 14.1455C10.3489 14.1455 8.49219 12.2889 8.49219 9.99855Z" fill="#5B4A58"/>
</svg>
