<svg width="16" height="16" viewBox="0 0 16 16" fill="none" xmlns="http://www.w3.org/2000/svg">
<path d="M11.4915 15.3662L12.7023 13.0884C12.8411 12.8504 12.7761 12.5327 12.5506 12.3472L10.2362 10.526C10.0278 10.3701 9.75223 10.3713 9.53877 10.5143L7.98995 11.6256C6.44092 10.3098 5.34092 8.43868 4.96507 6.38633L6.70188 5.60065C6.93242 5.48728 7.07127 5.24925 7.04044 4.99078L6.62047 2.07589C6.57255 1.78782 6.32369 1.59603 6.05439 1.57391L3.47638 1.48364C3.20082 1.48487 2.98111 1.65119 2.90605 1.93133C1.3047 7.90764 4.83601 14.0582 10.8357 15.6658C11.0925 15.7347 11.3526 15.6042 11.4915 15.3662Z" fill="white"/>
</svg>
