<svg width="17" height="21" viewBox="0 0 17 21" fill="none" xmlns="http://www.w3.org/2000/svg">
<path d="M9.71673 8.09216C9.71673 8.47876 10.0301 8.79216 10.4167 8.79216C10.8033 8.79216 11.1167 8.47876 11.1167 8.09216H9.71673ZM6.62891 0V-0.7V0ZM2.14109 8.09216C2.14109 8.47876 2.45449 8.79216 2.84109 8.79216C3.22769 8.79216 3.54109 8.47876 3.54109 8.09216H2.14109ZM13.9771 5.71632C13.9771 6.10292 14.2905 6.41632 14.6771 6.41632C15.0637 6.41632 15.3771 6.10292 15.3771 5.71632H13.9771ZM14.6771 3.8052H15.3771L15.377 3.79591L14.6771 3.8052ZM10.6984 -0.631516C10.3118 -0.631457 9.99844 -0.318008 9.9985 0.0685916C9.99856 0.455191 10.312 0.768543 10.6986 0.768484L10.6984 -0.631516ZM5.45521 12.035C5.45521 12.4216 5.76861 12.735 6.15521 12.735C6.54181 12.735 6.85521 12.4216 6.85521 12.035H5.45521ZM6.15521 5.71618H6.85521C6.85521 5.32958 6.54181 5.01618 6.15521 5.01618V5.71618ZM0 5.71618V5.01618C-0.386599 5.01618 -0.7 5.32958 -0.7 5.71618H0ZM0 20.8761H-0.7C-0.7 21.2627 -0.386599 21.5761 0 21.5761L0 20.8761ZM8.45578 5.01618C8.06918 5.01618 7.75578 5.32958 7.75578 5.71618C7.75578 6.10278 8.06918 6.41618 8.45578 6.41618V5.01618ZM13.7315 20.8761V21.5761H14.0215L14.2265 21.371L13.7315 20.8761ZM14.6785 19.9291L15.1735 19.4341L14.6785 18.9392L14.1835 19.4341L14.6785 19.9291ZM15.6254 20.8761L15.1305 21.371L15.3355 21.5761H15.6254V20.8761ZM16.0989 20.8761V21.5761H16.7989V20.8761H16.0989ZM16.0989 5.71618H16.7989V5.01618H16.0989V5.71618ZM6.62922 12.3535L7.12419 11.8585C6.99292 11.7273 6.81487 11.6535 6.62922 11.6535V12.3535ZM8.04965 13.7739H8.74965C8.74965 13.5883 8.6759 13.4102 8.54462 13.279L8.04965 13.7739ZM8.04965 17.5618V18.2618C8.43625 18.2618 8.74965 17.9484 8.74965 17.5618H8.04965ZM4.26183 17.5618H3.56183C3.56183 17.9484 3.87523 18.2618 4.26183 18.2618V17.5618ZM4.26183 13.7739L3.76685 13.279C3.63558 13.4102 3.56183 13.5883 3.56183 13.7739H4.26183ZM5.68226 12.3535V11.6535C5.49661 11.6535 5.31856 11.7273 5.18729 11.8585L5.68226 12.3535ZM1.89444 7.39226C1.50784 7.39226 1.19444 7.70566 1.19444 8.09226C1.19444 8.47886 1.50784 8.79226 1.89444 8.79226V7.39226ZM3.78835 8.79226C4.17495 8.79226 4.48835 8.47886 4.48835 8.09226C4.48835 7.70566 4.17495 7.39226 3.78835 7.39226V8.79226ZM9.46916 7.39226C9.08256 7.39226 8.76916 7.70566 8.76916 8.09226C8.76916 8.47886 9.08256 8.79226 9.46916 8.79226V7.39226ZM11.3631 8.79226C11.7497 8.79226 12.0631 8.47886 12.0631 8.09226C12.0631 7.70566 11.7497 7.39226 11.3631 7.39226V8.79226ZM11.1167 8.09216V3.78782H9.71673V8.09216H11.1167ZM11.1167 3.78782C11.1167 2.59758 10.6439 1.45608 9.80228 0.614453L8.81233 1.6044C9.39141 2.18348 9.71673 2.96888 9.71673 3.78782H11.1167ZM9.80228 0.614453C8.96065 -0.227177 7.81916 -0.7 6.62891 -0.7V0.7C7.44785 0.7 8.23325 1.02532 8.81233 1.6044L9.80228 0.614453ZM6.62891 -0.7C5.43867 -0.7 4.29717 -0.227177 3.45554 0.614453L4.44549 1.6044C5.02457 1.02532 5.80997 0.7 6.62891 0.7V-0.7ZM3.45554 0.614453C2.61391 1.45608 2.14109 2.59758 2.14109 3.78782H3.54109C3.54109 2.96888 3.86642 2.18348 4.44549 1.6044L3.45554 0.614453ZM2.14109 3.78782V8.09216H3.54109V3.78782H2.14109ZM15.3771 5.71632V3.8052H13.9771V5.71632H15.3771ZM15.377 3.79591C15.368 3.11546 15.2052 2.44585 14.9009 1.83718L13.6487 2.46328C13.8586 2.88316 13.9709 3.34508 13.9771 3.81448L15.377 3.79591ZM14.9009 1.83718C14.5965 1.2285 14.1585 0.696526 13.6196 0.28104L12.7648 1.38981C13.1366 1.67643 13.4387 2.0434 13.6487 2.46328L14.9009 1.83718ZM13.6196 0.28104C13.0806 -0.134447 12.4547 -0.422689 11.7886 -0.562123L11.5017 0.808175C11.9612 0.904361 12.393 1.1032 12.7648 1.38981L13.6196 0.28104ZM11.7886 -0.562123C11.6582 -0.589412 11.5936 -0.60543 11.5471 -0.616436C11.4974 -0.628179 11.4061 -0.65077 11.2834 -0.648338C11.1336 -0.64537 11.1733 -0.63159 10.6984 -0.631516L10.6986 0.768484C11.121 0.768418 11.3526 0.750565 11.3111 0.751387C11.2426 0.752745 11.1845 0.736452 11.2249 0.746002C11.2685 0.756289 11.3507 0.776559 11.5017 0.808175L11.7886 -0.562123ZM6.85521 12.035V5.71618H5.45521V12.035H6.85521ZM6.15521 5.01618H0V6.41618H6.15521V5.01618ZM-0.7 5.71618V20.8761H0.7V5.71618H-0.7ZM0 21.5761H13.2574V20.1761H0V21.5761ZM13.9574 20.8761V5.71618H12.5574V20.8761H13.9574ZM13.2574 5.01618H8.45578V6.41618H13.2574V5.01618ZM13.2574 21.5761H13.7315V20.1761H13.2574V21.5761ZM14.2265 21.371L15.1735 20.4241L14.1835 19.4341L13.2365 20.3811L14.2265 21.371ZM14.1835 20.4241L15.1305 21.371L16.1204 20.3811L15.1735 19.4341L14.1835 20.4241ZM15.6254 21.5761H16.0989V20.1761H15.6254V21.5761ZM16.7989 20.8761V5.71618H15.3989V20.8761H16.7989ZM16.0989 5.01618H13.2574V6.41618H16.0989V5.01618ZM6.13424 12.8485L7.55467 14.2689L8.54462 13.279L7.12419 11.8585L6.13424 12.8485ZM7.34965 13.7739V17.5618H8.74965V13.7739H7.34965ZM8.04965 16.8618H4.26183V18.2618H8.04965V16.8618ZM4.96183 17.5618V13.7739H3.56183V17.5618H4.96183ZM4.7568 14.2689L6.17724 12.8485L5.18729 11.8585L3.76685 13.279L4.7568 14.2689ZM5.68226 13.0535H6.62922V11.6535H5.68226V13.0535ZM1.89444 8.79226H3.78835V7.39226H1.89444V8.79226ZM9.46916 8.79226H11.3631V7.39226H9.46916V8.79226Z" fill="white"/>
</svg>
