<svg width="15" height="20" viewBox="0 0 15 20" fill="none" xmlns="http://www.w3.org/2000/svg">
<path d="M6.42436 19.1799C6.76052 19.7028 7.54489 19.7028 7.88105 19.1799C13.3343 11.3362 14.3428 10.5144 14.3428 7.60107C14.3428 3.64187 11.1306 0.429688 7.17138 0.429688C3.17483 0.429688 0 3.64187 0 7.60107C0 10.5144 0.971124 11.3362 6.42436 19.1799ZM7.17138 10.5891C5.49059 10.5891 4.18331 9.28186 4.18331 7.60107C4.18331 5.95763 5.49059 4.61299 7.17138 4.61299C8.81482 4.61299 10.1595 5.95763 10.1595 7.60107C10.1595 9.28186 8.81482 10.5891 7.17138 10.5891Z" fill="white"/>
</svg>
