<svg width="16" height="16" viewBox="0 0 16 16" fill="none" xmlns="http://www.w3.org/2000/svg">
<path d="M12.0071 14.6474L13.2179 12.3697C13.3568 12.1316 13.2917 11.814 13.0662 11.6284L10.7518 9.80728C10.5434 9.65135 10.2679 9.65257 10.0544 9.79554L8.50558 10.9068C6.95655 9.59101 5.85655 7.71993 5.4807 5.66758L7.2175 4.8819C7.44805 4.76853 7.58689 4.5305 7.55607 4.27203L7.1361 1.35714C7.08818 1.06907 6.83932 0.877281 6.57001 0.855163L3.99201 0.764895C3.71645 0.766122 3.49673 0.93244 3.42167 1.21258C1.82032 7.18889 5.35164 13.3395 11.3513 14.9471C11.6081 15.0159 11.8682 14.8854 12.0071 14.6474Z" fill="white"/>
</svg>
