<svg width="55" height="44" viewBox="0 0 55 44" fill="none" xmlns="http://www.w3.org/2000/svg">
<path d="M37.8407 20.3676H18.885C18.1027 20.3676 17.4688 19.7336 17.4688 18.9514C17.4688 18.1691 18.1027 17.5352 18.885 17.5352H37.8407C38.6229 17.5352 39.2569 18.1691 39.2569 18.9514C39.2569 19.7334 38.6229 20.3676 37.8407 20.3676Z" fill="#EB8486"/>
<path d="M43.8966 39.0927H13.2388C12.5618 41.1855 10.5993 42.7003 8.28125 42.7003H43.8966C46.775 42.7003 49.1085 40.3668 49.1085 37.4884V33.8809C49.1085 36.7593 46.775 39.0927 43.8966 39.0927Z" fill="#EBE7F2"/>
<path d="M9.17016 7.91211V37.4892C9.17016 39.9521 7.46005 42.0105 5.16406 42.5553C5.55173 42.6472 5.95402 42.7011 6.36985 42.7011H8.28083C11.1593 42.7011 13.4927 40.3677 13.4927 37.4892V7.91211H9.17016Z" fill="#EBE7F2"/>
<path d="M40.2422 8.94144C40.2422 8.67473 40.2576 8.4115 40.2865 8.15234C40.6954 11.8485 43.9413 14.728 47.8862 14.728C51.831 14.728 53.5924 11.8488 54.0013 8.15234C54.03 8.4115 54.0457 8.67473 54.0457 8.94144C54.0457 13.0086 52.1075 16.8155 47.8862 16.8155C46.2937 16.8155 44.5241 16.0895 43.2998 15.2867L40.7518 16.3059L41.771 14.2675C40.2874 12.9244 40.2422 11.0577 40.2422 8.94144Z" fill="#EBE7F2"/>
<path d="M17.4688 12.1641H37.5298V14.467H17.4688V12.1641Z" fill="#EBE7F2"/>
<path d="M49.1068 18.3204C48.7399 18.3204 48.4426 18.6177 48.4426 18.9846V37.49C48.4426 39.9977 46.4025 42.0376 43.895 42.0376H11.9969C11.9998 42.0352 12.0024 42.0325 12.0054 42.0304C12.0829 41.9666 12.1589 41.901 12.2331 41.8335C12.2498 41.8184 12.2655 41.8021 12.2822 41.7867C12.3394 41.7336 12.396 41.6796 12.451 41.6241C12.4767 41.5981 12.5014 41.571 12.5269 41.5444C12.5713 41.4982 12.6152 41.4517 12.6579 41.4038C12.685 41.3736 12.7114 41.3427 12.7377 41.3119C12.777 41.2659 12.816 41.2197 12.854 41.1727C12.8803 41.14 12.9061 41.107 12.9319 41.0738C12.9683 41.0268 13.0039 40.979 13.039 40.9309C13.0637 40.8966 13.0884 40.8626 13.1123 40.8278C13.1468 40.7781 13.1801 40.7276 13.213 40.6769C13.2353 40.6426 13.2576 40.6083 13.2792 40.5735C13.3132 40.5188 13.3453 40.463 13.3775 40.4069C13.3958 40.375 13.4149 40.3434 13.4327 40.311C13.4715 40.2406 13.5079 40.1691 13.5438 40.0971C13.5531 40.0782 13.5635 40.0599 13.5728 40.0408C13.6169 39.9493 13.6586 39.8569 13.6982 39.7628C13.7096 39.7357 13.7194 39.7081 13.7306 39.6807C13.758 39.6132 13.7848 39.5455 13.8095 39.4767C13.8225 39.4403 13.8345 39.4033 13.8467 39.3666C13.8672 39.3058 13.8876 39.2447 13.9062 39.1828C13.9182 39.1429 13.9294 39.1025 13.9405 39.0624C13.9573 39.0026 13.9732 38.9426 13.9878 38.882C13.9979 38.84 14.0077 38.798 14.017 38.7558C14.0303 38.6955 14.0426 38.6346 14.054 38.5735C14.0619 38.531 14.0699 38.4885 14.0768 38.4457C14.0872 38.3825 14.096 38.3184 14.1045 38.2544C14.1098 38.2135 14.1156 38.1728 14.1201 38.1319C14.1278 38.0607 14.1334 37.989 14.1387 37.9172C14.1411 37.8827 14.1448 37.8481 14.1467 37.8133C14.1526 37.7062 14.156 37.5986 14.156 37.4902V7.91282V1.32855H49.1071C49.4741 1.32855 49.7714 1.03122 49.7714 0.664273C49.7714 0.297328 49.4741 0 49.1071 0H13.4915C13.1245 0 12.8272 0.297328 12.8272 0.664273V7.24854H1.15646C0.789516 7.24854 0.492188 7.54587 0.492188 7.91282V37.49C0.492188 40.73 3.12829 43.3661 6.36834 43.3661H8.27932H43.8947C47.1348 43.3661 49.7708 40.73 49.7708 37.49V18.9846C49.7711 18.618 49.4738 18.3204 49.1068 18.3204ZM1.82073 37.49V8.57709H12.8272V37.49C12.8272 39.9977 10.7871 42.0376 8.27959 42.0376H6.36861C3.86085 42.0376 1.82073 39.9977 1.82073 37.49Z" fill="#5B4A58"/>
<path d="M17.469 5.19183H27.3225C27.6895 5.19183 27.9868 4.8945 27.9868 4.52755C27.9868 4.16061 27.6895 3.86328 27.3225 3.86328H17.469C17.102 3.86328 16.8047 4.16061 16.8047 4.52755C16.8047 4.8945 17.102 5.19183 17.469 5.19183Z" fill="#5B4A58"/>
<path d="M44.3165 27.7539L17.469 27.7539C17.102 27.7539 16.8047 28.0512 16.8047 28.4182C16.8047 28.7851 17.102 29.0825 17.469 29.0825H44.3165C44.6834 29.0825 44.9808 28.7851 44.9808 28.4182C44.9808 28.0515 44.6832 27.7539 44.3165 27.7539Z" fill="#5B4A58"/>
<path d="M44.1618 30.9434H17.469C17.102 30.9434 16.8047 31.2407 16.8047 31.6076C16.8047 31.9746 17.102 32.2719 17.469 32.2719H44.1618C44.5288 32.2719 44.8261 31.9746 44.8261 31.6076C44.8261 31.241 44.5285 30.9434 44.1618 30.9434Z" fill="#5B4A58"/>
<path d="M44.3165 34.1309L17.469 34.1309C17.102 34.1309 16.8047 34.4282 16.8047 34.7951C16.8047 35.1621 17.102 35.4594 17.469 35.4594H44.3165C44.6834 35.4594 44.9808 35.1621 44.9808 34.7951C44.9808 34.4285 44.6832 34.1309 44.3165 34.1309Z" fill="#5B4A58"/>
<path d="M47.1104 2.89258C43.0304 2.89258 39.7109 6.21208 39.7109 10.2923C39.7109 11.6583 40.0821 12.9808 40.7873 14.1377L39.8937 16.642C39.8074 16.8838 39.8682 17.1534 40.0497 17.3349C40.2309 17.5164 40.5012 17.5775 40.7424 17.4909L43.2401 16.5997C44.4034 17.3153 45.734 17.6918 47.1101 17.6918C51.1904 17.6918 54.5099 14.3723 54.5099 10.292C54.5101 6.21182 51.1906 2.89258 47.1104 2.89258ZM47.1104 16.3632C45.8868 16.3632 44.7076 16.0005 43.6998 15.3147C43.5882 15.2387 43.4574 15.1997 43.3259 15.1997C43.2507 15.1997 43.1753 15.2124 43.1027 15.2385L41.6161 15.7688L42.1483 14.2771C42.2192 14.0784 42.1916 13.8573 42.0734 13.6825C41.3971 12.6797 41.0395 11.5074 41.0395 10.2926C41.0395 6.94491 43.7627 4.22139 47.1104 4.22139C50.4581 4.22139 53.1816 6.94491 53.1816 10.2926C53.1816 13.6397 50.4581 16.3632 47.1104 16.3632Z" fill="#5B4A58"/>
<path d="M37.53 8.66602H17.469C17.102 8.66602 16.8047 8.96334 16.8047 9.33029V14.4672C16.8047 14.8342 17.102 15.1315 17.469 15.1315H37.53C37.8969 15.1315 38.1943 14.8342 38.1943 14.4672V9.33029C38.1943 8.96334 37.8969 8.66602 37.53 8.66602ZM36.8657 13.8027H18.1332V9.99456H36.8657V13.8027Z" fill="#5B4A58"/>
<path d="M43.974 25.3071H18.885C18.1027 25.3071 17.4688 24.6731 17.4688 23.8908C17.4688 23.1086 18.1027 22.4746 18.885 22.4746H43.974C44.7563 22.4746 45.3902 23.1086 45.3902 23.8908C45.3902 24.6728 44.7563 25.3071 43.974 25.3071Z" fill="#EB8486"/>
<path fill-rule="evenodd" clip-rule="evenodd" d="M48.25 7.30934C48.5308 7.19409 48.8318 7.13477 49.1358 7.13477C49.4397 7.13477 49.7407 7.19409 50.0216 7.30934C50.3023 7.42458 50.5574 7.59347 50.7723 7.80637C50.9872 8.0192 51.1579 8.272 51.2742 8.55011C51.3905 8.82827 51.4504 9.12642 51.4504 9.42751C51.4504 9.7286 51.3905 10.0267 51.2742 10.3049C51.1578 10.583 50.9873 10.8357 50.7724 11.0486L47.6253 14.1658C47.4863 14.3036 47.2609 14.3036 47.1218 14.1658L43.9748 11.0486C43.5407 10.6187 43.2969 10.0355 43.2969 9.42751C43.2969 8.81949 43.5407 8.23637 43.9748 7.80643C44.4088 7.37649 44.9975 7.13495 45.6113 7.13495C46.2252 7.13495 46.8139 7.37649 47.2479 7.80643L47.3736 7.93087L47.4991 7.80649C47.714 7.59356 47.9692 7.42459 48.25 7.30934Z" fill="#EB8486"/>
</svg>
