<svg width="21" height="27" viewBox="0 0 21 27" fill="none" xmlns="http://www.w3.org/2000/svg">
<path d="M13.3156 10.343V4.84141C13.3156 3.55739 12.8056 2.32596 11.8976 1.41802C10.9897 0.510076 9.75825 0 8.47422 0C7.1902 0 5.95877 0.510076 5.05083 1.41802C4.14289 2.32596 3.63281 3.55739 3.63281 4.84141V10.343" stroke="#5B4A58" stroke-width="1.4" stroke-miterlimit="10" stroke-linecap="round" stroke-linejoin="round"/>
<path d="M18.7571 7.30694V4.86423C18.7474 4.12938 18.5716 3.40625 18.2429 2.74893C17.9142 2.09161 17.4412 1.51711 16.8592 1.06841C16.2771 0.619716 15.6012 0.308435 14.8818 0.157856C14.1625 0.00727721 14.8187 0.0879658 13.6719 0.0881428" stroke="#5B4A58" stroke-width="1.4" stroke-miterlimit="10" stroke-linecap="round" stroke-linejoin="round"/>
<path d="M7.86729 15.383V7.30664H0V26.6833H16.9449V7.30664H10.8078" stroke="#5B4A58" stroke-width="1.4" stroke-miterlimit="10" stroke-linecap="round" stroke-linejoin="round"/>
<path fill-rule="evenodd" clip-rule="evenodd" d="M16.9453 7.30664V26.6833H17.5505L18.7608 25.4729L19.9712 26.6833H20.5764V7.30664H16.9453Z" stroke="#5B4A58" stroke-width="1.4" stroke-miterlimit="10"/>
<path fill-rule="evenodd" clip-rule="evenodd" d="M8.4712 15.7891L10.2867 17.6046V22.446H5.44531V17.6046L7.26084 15.7891H8.4712Z" stroke="#5B4A58" stroke-width="1.4" stroke-miterlimit="10" stroke-linecap="round" stroke-linejoin="round"/>
<path d="M2.42188 10.3438H4.84258" stroke="#5B4A58" stroke-width="1.4" stroke-miterlimit="10" stroke-linecap="round" stroke-linejoin="round"/>
<path d="M12.1016 10.3438H14.5223" stroke="#5B4A58" stroke-width="1.4" stroke-miterlimit="10" stroke-linecap="round" stroke-linejoin="round"/>
</svg>
