<svg width="46" height="42" viewBox="0 0 46 42" fill="none" xmlns="http://www.w3.org/2000/svg">
<path d="M27.7235 2.4215C27.7235 1.58755 27.8193 0.776477 28 0H7.59395C6.50195 0 5.54882 0.767696 5.27903 1.86482L5 3H27.7389C27.7289 2.80841 27.7235 2.61549 27.7235 2.4215Z" fill="#EBE7F2"/>
<path d="M0 30H42V34H0V30Z" fill="#EBE7F2"/>
<path d="M2 36.3831V34V41H9V36.3831H2Z" fill="#EBE7F2"/>
<path d="M38.9998 34V36.7236H32V42H39V34H38.9998Z" fill="#EBE7F2"/>
<path d="M36.5 9.50088C32.0076 9.50088 28.2439 6.30041 27.2543 2C27.0882 2.7222 27 3.47516 27 4.24956C27 9.63453 31.2533 14 36.5 14C41.7467 14 46 9.63453 46 4.24956C46 3.47541 45.9118 2.7222 45.7457 2C44.7561 6.30041 40.9922 9.50088 36.5 9.50088Z" fill="#EBE7F2"/>
</svg>
