<svg width="47" height="47" viewBox="0 0 47 47" fill="none" xmlns="http://www.w3.org/2000/svg">
<path d="M23.2077 35.144C12.7209 35.144 3.93474 27.8648 1.62472 18.084C1.23683 19.7264 1.03125 21.4392 1.03125 23.2004C1.03125 35.4482 10.96 45.3769 23.2077 45.3769C35.4555 45.3769 45.3842 35.4482 45.3842 23.2004C45.3842 21.4396 45.1786 19.7264 44.7907 18.084C42.481 27.8648 33.6946 35.144 23.2077 35.144Z" fill="#EBE7F2"/>
<circle cx="23.5" cy="23.5" r="22.75" stroke="#5B4A58" stroke-width="1.5"/>
<path d="M21.568 15.7547C21.568 12.5504 18.9609 9.94336 15.7566 9.94336C12.5524 9.94336 9.94531 12.5504 9.94531 15.7547C9.94531 18.9589 12.5524 21.566 15.7566 21.566C18.9609 21.566 21.568 18.9589 21.568 15.7547ZM11.4957 15.7547C11.4957 13.405 13.4069 11.4937 15.7566 11.4937C18.106 11.4937 20.0176 13.4053 20.0176 15.7547C20.0176 18.1041 18.106 20.0157 15.7566 20.0157C13.4069 20.0157 11.4957 18.1041 11.4957 15.7547Z" fill="#5B4A58"/>
<path d="M18.1706 15.7554C18.1706 14.4246 17.0878 13.3418 15.7573 13.3418C14.4265 13.3418 13.3438 14.4246 13.3438 15.7554C13.3438 17.0859 14.4265 18.1686 15.7573 18.1686C17.0881 18.1686 18.1706 17.0862 18.1706 15.7554ZM14.8941 15.7554C14.8941 15.2794 15.2814 14.8921 15.7573 14.8921C16.2333 14.8921 16.6203 15.2794 16.6203 15.7554C16.6203 16.2313 16.2333 16.6183 15.7573 16.6183C15.2814 16.6183 14.8941 16.2313 14.8941 15.7554Z" fill="#5B4A58"/>
<path d="M30.4676 36.2789C33.6721 36.2789 36.2789 33.6718 36.2789 30.4676C36.2789 27.263 33.6718 24.6562 30.4676 24.6562C27.2633 24.6562 24.6562 27.2633 24.6562 30.4676C24.6562 33.6718 27.2633 36.2789 30.4676 36.2789ZM30.4676 26.2063C32.8173 26.2063 34.7285 28.1179 34.7285 30.4673C34.7285 32.817 32.817 34.7282 30.4676 34.7282C28.1179 34.7282 26.2066 32.8167 26.2066 30.4673C26.2066 28.1179 28.1182 26.2063 30.4676 26.2063Z" fill="#5B4A58"/>
<path d="M30.4676 36.2789C33.6721 36.2789 36.2789 33.6718 36.2789 30.4676C36.2789 27.263 33.6718 24.6562 30.4676 24.6562C27.2633 24.6562 24.6562 27.2633 24.6562 30.4676C24.6562 33.6718 27.2633 36.2789 30.4676 36.2789ZM30.4676 26.2063C32.8173 26.2063 34.7285 28.1179 34.7285 30.4673C34.7285 32.817 32.817 34.7282 30.4676 34.7282C28.1179 34.7282 26.2066 32.8167 26.2066 30.4673C26.2066 28.1179 28.1182 26.2063 30.4676 26.2063Z" fill="#5B4A58"/>
<path d="M30.4683 32.8818C31.7991 32.8818 32.8818 31.7991 32.8818 30.4683C32.8818 29.1374 31.7991 28.0547 30.4683 28.0547C29.1374 28.0547 28.0547 29.1374 28.0547 30.4683C28.055 31.7991 29.1374 32.8818 30.4683 32.8818ZM30.4683 29.6053C30.9442 29.6053 31.3315 29.9926 31.3315 30.4686C31.3315 30.9445 30.9442 31.3318 30.4683 31.3318C29.9923 31.3318 29.605 30.9445 29.605 30.4686C29.6053 29.9923 29.9923 29.6053 30.4683 29.6053Z" fill="#5B4A58"/>
<path d="M14.8401 33.4219C15.2776 33.7729 15.827 33.9663 16.3873 33.9663C17.1423 33.9663 17.8462 33.629 18.3184 33.0405L31.7634 16.2806C32.1767 15.7649 32.3649 15.1194 32.293 14.4623C32.221 13.8053 31.8973 13.2159 31.3817 12.8022C30.8663 12.3889 30.2208 12.2013 29.5637 12.2726C28.9067 12.3446 28.3169 12.6683 27.9036 13.1836L14.4587 29.9435C14.0451 30.4591 13.8572 31.1047 13.9291 31.7614C14.001 32.4188 14.3247 33.0082 14.8401 33.4219Z" fill="#FF8C8C"/>
<path d="M14.8401 33.4219C15.2776 33.7729 15.827 33.9663 16.3873 33.9663C17.1423 33.9663 17.8462 33.629 18.3184 33.0405L31.7634 16.2806C32.1767 15.7649 32.3649 15.1194 32.293 14.4623C32.221 13.8053 31.8973 13.2159 31.3817 12.8022C30.8663 12.3889 30.2208 12.2013 29.5637 12.2726C28.9067 12.3446 28.3169 12.6683 27.9036 13.1836L14.4587 29.9435C14.0451 30.4591 13.8572 31.1047 13.9291 31.7614C14.001 32.4188 14.3247 33.0082 14.8401 33.4219ZM15.668 30.914L29.1129 14.1538C29.2673 13.9616 29.4875 13.8407 29.7327 13.8137C29.7668 13.81 29.8012 13.8081 29.8354 13.8081C30.0446 13.8081 30.2462 13.8788 30.4118 14.0115C30.604 14.1659 30.7249 14.3861 30.7519 14.631C30.7789 14.8766 30.7085 15.1175 30.5541 15.3101L17.1089 32.0699C16.8003 32.4544 16.1969 32.523 15.8103 32.2123C15.6177 32.0582 15.4971 31.838 15.4701 31.5928C15.4432 31.3475 15.5135 31.1063 15.668 30.914Z" fill="#5B4A58"/>
</svg>
