<svg width="16" height="18" viewBox="0 0 16 18" fill="none" xmlns="http://www.w3.org/2000/svg">
<path fill-rule="evenodd" clip-rule="evenodd" d="M1.3865 12.0193C2.16421 11.2416 3.21901 10.8047 4.31886 10.8047H10.954C12.0539 10.8047 13.1087 11.2416 13.8864 12.0193C14.6641 12.797 15.101 13.8518 15.101 14.9517V16.6105C15.101 17.0685 14.7297 17.4399 14.2716 17.4399C13.8136 17.4399 13.4422 17.0685 13.4422 16.6105V14.9517C13.4422 14.2918 13.1801 13.6589 12.7134 13.1923C12.2468 12.7256 11.6139 12.4635 10.954 12.4635H4.31886C3.65895 12.4635 3.02607 12.7256 2.55944 13.1923C2.09282 13.6589 1.83067 14.2918 1.83067 14.9517V16.6105C1.83067 17.0685 1.45933 17.4399 1.00127 17.4399C0.543208 17.4399 0.171875 17.0685 0.171875 16.6105V14.9517C0.171875 13.8518 0.608788 12.797 1.3865 12.0193Z" fill="#5B4A58"/>
<path fill-rule="evenodd" clip-rule="evenodd" d="M7.63917 2.51036C6.26498 2.51036 5.15098 3.62436 5.15098 4.99855C5.15098 6.37273 6.26498 7.48674 7.63917 7.48674C9.01336 7.48674 10.1274 6.37273 10.1274 4.99855C10.1274 3.62436 9.01336 2.51036 7.63917 2.51036ZM3.49219 4.99855C3.49219 2.70823 5.34886 0.851562 7.63917 0.851562C9.92949 0.851562 11.7862 2.70823 11.7862 4.99855C11.7862 7.28886 9.92949 9.14553 7.63917 9.14553C5.34886 9.14553 3.49219 7.28886 3.49219 4.99855Z" fill="#5B4A58"/>
</svg>
