<svg width="10" height="18" viewBox="0 0 10 18" fill="none" xmlns="http://www.w3.org/2000/svg">
<path d="M8.91936 10.2014C8.66117 9.71475 8.27293 9.29136 7.76493 8.94341C7.28801 8.61627 6.56696 8.29103 5.56095 7.94929C4.49492 7.58701 4.00286 7.26312 3.77873 7.05575C3.5154 6.81162 3.38725 6.46393 3.38725 5.99297C3.38725 5.49848 3.53325 5.12132 3.83443 4.83934C4.14588 4.54654 4.59171 4.40433 5.19812 4.40433C5.77615 4.40433 6.21171 4.58006 6.52992 4.94127C6.86841 5.32599 7.03306 5.85103 7.03306 6.54585V6.89732C7.03306 7.0425 7.15067 7.16011 7.29558 7.16011H8.95748C9.1024 7.16011 9.22001 7.0425 9.22001 6.89732V6.54585C9.22001 5.33383 8.91017 4.34864 8.2997 3.61785C7.82657 3.05064 7.20582 2.66618 6.44881 2.47017C6.33148 2.43989 6.24712 2.33769 6.24712 2.21657V0.973458C6.24712 0.828274 6.12952 0.710938 5.9846 0.710938H4.45977C4.31486 0.710938 4.19725 0.828544 4.19725 0.973458V2.20549C4.19725 2.3285 4.11047 2.43205 3.9907 2.46071C3.26775 2.63374 2.66161 2.96574 2.18253 3.45212C1.53042 4.11369 1.20004 4.97587 1.20004 6.01432C1.20004 7.00384 1.5023 7.82898 2.09844 8.46784C2.66647 9.07616 3.5884 9.5747 4.90046 9.98619C6.00515 10.3687 6.49829 10.7053 6.71809 10.9208C6.98413 11.1812 7.11363 11.5159 7.11363 11.9439C7.11363 12.4205 6.9533 12.7787 6.60886 13.0713C6.23982 13.3849 5.75966 13.5374 5.14135 13.5374C4.42544 13.5374 3.89607 13.3611 3.52324 12.9985C3.15501 12.6403 2.97603 12.1399 2.97603 11.4686V11.1171C2.97603 10.9722 2.85843 10.8543 2.71352 10.8543H1.04377C0.898855 10.8543 0.78125 10.9719 0.78125 11.1171V11.4686C0.78125 12.6868 1.13758 13.6723 1.84079 14.3982C2.38178 14.9562 3.09148 15.3253 3.95771 15.4999C4.08154 15.5248 4.17292 15.6305 4.17292 15.7568V16.8639C4.17292 17.0088 4.29052 17.1264 4.43544 17.1264H5.9527C6.09761 17.1264 6.21522 17.0088 6.21522 16.8639V15.7338C6.21522 15.6094 6.30363 15.5053 6.42502 15.478C7.1777 15.3088 7.80602 14.98 8.29916 14.4966C8.96911 13.8396 9.30895 12.9748 9.30895 11.9274C9.30895 11.2696 9.17783 10.6891 8.91936 10.2014Z" fill="#FF8C8C"/>
</svg>
