<svg width="27" height="27" viewBox="0 0 27 27" fill="none" xmlns="http://www.w3.org/2000/svg">
<path d="M13.5716 26.5722C13.0402 26.5722 12.6096 26.1416 12.6096 25.6102C12.6096 25.0787 13.0402 24.6481 13.5716 24.6481C19.6794 24.6481 24.6485 19.679 24.6485 13.5713C24.6485 7.46349 19.6794 2.49438 13.5716 2.49438C7.46349 2.49438 2.49438 7.46349 2.49438 13.5713C2.49438 17.165 4.24952 20.5499 7.1895 22.6259C7.62357 22.9322 7.7267 23.5329 7.42039 23.9666C7.11408 24.4003 6.51377 24.5038 6.0797 24.1975C2.62984 21.7616 0.570312 17.7892 0.570312 13.5713C0.570312 6.40255 6.40255 0.570312 13.5716 0.570312C20.7407 0.570312 26.5726 6.40255 26.5726 13.5713C26.5726 20.74 20.7403 26.5722 13.5716 26.5722Z" fill="#F9B087"/>
</svg>
