<svg width="52" height="48" viewBox="0 0 52 48" fill="none" xmlns="http://www.w3.org/2000/svg">
<path d="M45.9051 20.991C45.6281 21.1875 45.5618 21.5725 45.7573 21.851C46.3467 22.6902 46.6581 23.6791 46.6581 24.7104V39.2908H5.27144V24.7104C5.27144 21.9722 7.48758 19.7446 10.2118 19.7446H34.1508C34.4899 19.7446 34.7647 19.4684 34.7647 19.1275C34.7647 18.7866 34.4899 18.5104 34.1508 18.5104H8.74398L10.5677 11.3159H29.925C30.2642 11.3159 30.539 11.0396 30.539 10.6988C30.539 10.3579 30.2642 10.0816 29.925 10.0816H10.8806L11.5169 7.57148C11.62 7.16418 11.8661 6.82403 12.193 6.59916C12.2303 6.57348 12.2686 6.54929 12.3081 6.52683C12.3474 6.50437 12.3877 6.48339 12.429 6.46388C12.4393 6.45895 12.4496 6.45426 12.4601 6.44981C12.481 6.44068 12.5019 6.43179 12.5233 6.4234C12.5869 6.39822 12.6524 6.37675 12.7195 6.35947C12.7418 6.35379 12.7642 6.34836 12.787 6.34342C12.9002 6.31923 13.0174 6.3064 13.1367 6.3064H30.5903C30.9295 6.3064 31.2043 6.03018 31.2043 5.68928C31.2043 5.34839 30.9295 5.07217 30.5903 5.07217H13.1367C11.8101 5.07217 10.6546 5.97464 10.327 7.26687L8.25994 15.4226C7.73537 14.7835 6.94165 14.3758 6.0551 14.3758H2.8576C1.28194 14.3758 0 15.6643 0 17.2483C0 18.8321 1.28194 20.1206 2.8576 20.1206H6.0551C6.06025 20.1206 6.06516 20.1203 6.07032 20.1203C4.82644 21.2553 4.04402 22.8929 4.04402 24.7107V39.9082C4.04402 40.2491 4.31882 40.5253 4.65797 40.5253H6.53595V47.3829C6.53595 47.7238 6.81075 48 7.1499 48H14.428C14.7672 48 15.042 47.7238 15.042 47.3829V40.5253H36.8881V47.3829C36.8881 47.7238 37.1629 48 37.502 48H44.7801C45.1193 48 45.3941 47.7238 45.3941 47.3829V40.5253H47.272C47.6112 40.5253 47.886 40.2491 47.886 39.9082V24.7107C47.886 23.4234 47.4967 22.1884 46.7607 21.1398C46.565 20.8611 46.1819 20.795 45.9051 20.991ZM2.85736 18.8861C1.95877 18.8861 1.22767 18.1513 1.22767 17.2478C1.22767 16.3446 1.95877 15.6097 2.85736 15.6097H6.05485C6.95368 15.6097 7.68478 16.3446 7.68478 17.2481C7.68478 18.1513 6.95368 18.8861 6.05485 18.8861H2.85736ZM13.8138 46.7655H7.76362V40.525H13.8138V46.7655ZM44.1659 46.7655H38.1157V40.525H44.1659V46.7655ZM10.2295 30.6384H15.7291C16.4828 30.6384 17.1817 30.2968 17.6471 29.7009C18.1125 29.105 18.2765 28.3413 18.0975 27.6054L17.7903 26.3428C17.5226 25.2426 16.5486 24.4744 15.4216 24.4744H9.92204C9.16835 24.4744 8.46918 24.8163 8.0038 25.4122C7.53842 26.0081 7.37437 26.7718 7.55364 27.5077L7.86087 28.7703C8.1288 29.87 9.10254 30.6384 10.2295 30.6384ZM8.96992 26.174C9.20101 25.8782 9.54802 25.7084 9.92204 25.7084H15.4216C15.9811 25.7084 16.4646 26.0898 16.5975 26.6358L16.9047 27.8984C16.9936 28.2638 16.9121 28.6429 16.681 28.9386C16.4501 29.2343 16.1029 29.4042 15.7289 29.4042H10.2295C9.67008 29.4042 9.18652 29.0228 9.05366 28.4768L8.74644 27.2142C8.65754 26.8488 8.73883 26.4697 8.96992 26.174ZM43.9255 25.412C43.4601 24.8161 42.7609 24.4742 42.0072 24.4742H36.5076C35.3809 24.4742 34.4069 25.2426 34.139 26.3428L33.8318 27.6054C33.6525 28.3413 33.8168 29.105 34.2822 29.7009C34.7475 30.2968 35.4465 30.6384 36.2002 30.6384H41.6998C42.8265 30.6384 43.8005 29.87 44.0684 28.7698L44.3756 27.5074C44.5549 26.7716 44.3909 26.0078 43.9255 25.412ZM43.1831 27.2142L42.8759 28.4765C42.7427 29.0226 42.2594 29.4042 41.7 29.4042H36.2004C35.8264 29.4042 35.4791 29.2343 35.2483 28.9386C35.0174 28.6429 34.9359 28.2638 35.0246 27.8984L35.3318 26.6361C35.4649 26.09 35.9482 25.7084 36.5076 25.7084H42.0072C42.3812 25.7084 42.7285 25.8782 42.9594 26.174C43.1907 26.4697 43.272 26.8488 43.1831 27.2142ZM22.8213 30.6384H29.1082C30.5068 30.6384 31.7276 29.6876 32.0773 28.3265C32.316 27.3966 32.1174 26.428 31.5324 25.6687C30.9472 24.9094 30.0638 24.4739 29.1082 24.4739H22.8213C21.8657 24.4739 20.9824 24.9094 20.3971 25.6687C19.8122 26.4277 19.6135 27.3966 19.8522 28.3265C20.2019 29.6878 21.4227 30.6384 22.8213 30.6384ZM21.3679 26.4248C21.7189 25.9696 22.2486 25.7084 22.8213 25.7084H29.1082C29.6809 25.7084 30.2109 25.9696 30.5616 26.4248C30.9123 26.8799 31.0314 27.4605 30.8882 28.0181C30.6787 28.8345 29.9466 29.4044 29.1082 29.4044H22.8213C21.9826 29.4044 21.2508 28.8345 21.0413 28.0184C20.8981 27.4605 21.017 26.8799 21.3679 26.4248ZM7.5836 33.529C7.5836 33.1881 7.85841 32.9118 8.19756 32.9118H43.7317C44.0709 32.9118 44.3457 33.1881 44.3457 33.529C44.3457 33.8699 44.0709 34.1461 43.7317 34.1461H8.19756C7.85841 34.1461 7.5836 33.8699 7.5836 33.529ZM41.8901 0C36.3156 0 31.7802 4.55849 31.7802 10.1619C31.7802 15.7653 36.3153 20.3237 41.8901 20.3237C47.4648 20.3237 52 15.7653 52 10.1619C51.9998 4.55849 47.4646 0 41.8901 0ZM41.8901 19.0895C36.9927 19.0895 33.0081 15.0845 33.0081 10.1619C33.0081 5.23929 36.9924 1.23423 41.8901 1.23423C46.7877 1.23423 50.7721 5.23904 50.7721 10.1619C50.7721 15.0847 46.7875 19.0895 41.8901 19.0895Z" fill="#5B4A58"/>
</svg>
